Jump_normalized_Motion_pl05
version=1
nRows=12
nColumns=43
inDegrees=yes
endheader
time		pelvis_tilt		pelvis_list		pelvis_rotation		pelvis_tx		pelvis_ty		pelvis_tz		hip_flexion_r		hip_adduction_r		hip_rotation_r		knee_angle_r		ankle_angle_r		subtalar_angle_r		mtp_angle_r		hip_flexion_l		hip_adduction_l		hip_rotation_l		knee_angle_l		ankle_angle_l		subtalar_angle_l		mtp_angle_l		lumbar_extension		lumbar_bending		lumbar_rotation		neck_flexion		neck_lateral_bending		neck_rotation		arm_flex_r		arm_add_r		arm_rot_r		elbow_flex_r		pro_sup_r		wrist_flex_r		wrist_dev_r		hand_finger_flex_r		arm_flex_l		arm_add_l		arm_rot_l		elbow_flex_l		pro_sup_l		wrist_flex_l		wrist_dev_l		hand_finger_flex_l		
0.652500		-3.733507		-28.215665		89.652513		0.015624		1.883000		1.660679		59.913805		-5.593071		5.193954		-109.118296		19.087358		-5.911980		-1.199493		58.804706		-0.944596		2.745070		-107.647383		25.234233		-6.323979		6.652799		-37.760851		-2.645547		-1.307332		29.969983		1.587266		-0.922038		145.703561		-2.099320		32.338105		48.187731		67.026429		-32.766269		-1.591400		31.831888		142.418677		-1.124374		21.059379		54.898099		102.577224		-31.730884		10.866857		78.064972		
0.655909		-3.579909		-27.523081		89.599206		0.015885		1.886910		1.653128		58.435454		-5.523181		5.002363		-108.422414		18.138866		-6.065451		-1.439733		57.338408		-1.211231		2.738861		-107.111488		24.475818		-6.208228		6.833849		-38.290675		-2.613755		-1.078782		29.538824		1.578348		-0.888370		145.615080		-2.015773		32.130374		48.151066		67.333130		-32.759532		-1.944997		31.776407		142.327726		-1.066738		20.859934		55.066989		103.424096		-31.836835		11.070530		78.144726		
0.659318		-3.545842		-27.322722		89.556718		0.015842		1.889736		1.646099		57.627659		-5.617337		4.934101		-107.881335		17.068872		-5.757150		-1.612554		56.548060		-1.328666		2.710454		-106.701880		23.436231		-5.868545		6.816989		-38.181821		-2.629940		-0.933489		28.845739		1.610574		-0.904608		145.362405		-2.066018		32.136046		48.247419		67.415853		-32.730134		-2.018042		31.782927		142.046678		-1.131037		20.894024		55.317785		103.651884		-31.809965		11.147791		78.214808		
0.662727		-3.523828		-26.937341		89.484660		0.015821		1.892904		1.638787		56.621226		-5.693654		4.881896		-107.304724		15.906028		-5.564450		-1.798535		55.532670		-1.448505		2.661543		-106.253038		22.358551		-5.610538		6.813199		-38.279082		-2.664160		-0.779900		28.139487		1.618191		-0.912655		145.083671		-2.078868		32.072415		48.334213		67.525814		-32.752719		-2.152708		31.772396		141.740007		-1.167863		20.865123		55.563311		103.933491		-31.816305		11.243610		78.279369		
0.666136		-3.554345		-26.165625		89.379625		0.015788		1.896744		1.630935		55.162913		-5.791857		4.861492		-106.682655		14.701959		-5.652305		-1.984645		54.036829		-1.534977		2.519334		-105.702871		21.299754		-5.581140		6.950177		-38.834975		-2.740567		-0.642604		27.583731		1.602298		-0.912909		144.860782		-2.045982		31.952991		48.344427		67.767951		-32.795294		-2.366660		31.745897		141.491011		-1.144747		20.727713		55.752443		104.484921		-31.831917		11.432610		78.366289		
0.669545		-3.604388		-25.527252		89.277519		0.015710		1.900296		1.623244		53.904100		-5.934191		4.848833		-106.098838		13.501289		-5.594432		-2.149146		52.734786		-1.586738		2.400659		-105.191359		20.168098		-5.476112		7.095622		-39.242274		-2.831841		-0.534581		26.993359		1.622429		-0.927299		144.641699		-2.068818		31.929794		48.357785		67.995501		-32.776912		-2.495831		31.743966		141.222557		-1.154451		20.668012		55.964784		104.986432		-31.792642		11.606131		78.469283		
0.672955		-3.658753		-25.129604		89.201263		0.015521		1.903212		1.615783		52.996165		-6.094184		4.887397		-105.603900		12.138077		-5.311185		-2.315967		51.794073		-1.600443		2.326957		-104.780508		18.866361		-5.238099		7.099464		-39.307840		-2.903512		-0.446140		26.201189		1.628576		-0.952935		144.265552		-2.141334		31.981175		48.460533		68.103879		-32.762010		-2.531314		31.752247		140.797181		-1.216603		20.686702		56.197771		105.193433		-31.743884		11.686641		78.553884		
0.676364		-3.785149		-24.302327		89.050945		0.015453		1.907004		1.607801		51.601713		-6.275703		4.956697		-105.020549		10.655250		-5.421787		-2.444118		50.311551		-1.582864		2.125649		-104.238757		17.512280		-5.411422		7.272620		-39.912060		-3.070082		-0.378956		25.549269		1.612157		-0.976652		143.982656		-2.181283		31.946008		48.510460		68.375281		-32.812262		-2.633493		31.704339		140.468801		-1.185010		20.562833		56.375384		105.636946		-31.705534		11.828051		78.663494		
0.679773		-3.867364		-23.675445		88.939019		0.015344		1.910217		1.600062		50.487737		-6.458067		4.998644		-104.520723		9.210713		-5.297623		-2.557383		49.162933		-1.605329		1.966170		-103.831633		16.077571		-5.364237		7.408475		-40.263324		-3.196580		-0.301353		24.872754		1.678691		-1.011354		143.680507		-2.276940		32.039768		48.535857		68.607958		-32.789386		-2.650937		31.685121		140.090804		-1.220487		20.598407		56.572660		105.994182		-31.620902		11.939359		78.776627		
0.683182		-3.916667		-23.098384		88.854387		0.015292		1.913289		1.592397		49.480268		-6.600786		5.030861		-104.034851		7.560375		-5.186169		-2.690895		48.143654		-1.634125		1.858435		-103.469014		14.478716		-5.326963		7.502759		-40.546223		-3.294521		-0.204388		24.097271		1.695669		-1.028548		143.313358		-2.401349		32.146330		48.616648		68.826058		-32.802712		-2.654385		31.644958		139.665568		-1.252355		20.640115		56.743879		106.227702		-31.559546		12.040542		78.870205		
0.686591		-3.973043		-22.323618		88.752966		0.015315		1.916686		1.584555		48.259203		-6.715789		5.071281		-103.523024		5.811860		-5.330026		-2.768514		46.926753		-1.663780		1.705930		-103.077174		12.763037		-5.528977		7.762552		-41.078721		-3.415307		-0.108854		23.424659		1.738859		-1.056646		143.007176		-2.509104		32.260360		48.647894		69.161382		-32.844809		-2.655532		31.556963		139.291557		-1.253407		20.641391		56.881204		106.560916		-31.494857		12.183843		78.975587		
0.690000		-3.965687		-21.936516		88.706413		0.015304		1.919202		1.577203		47.554721		-6.799335		5.100402		-103.106445		4.084444		-5.006694		-2.931014		46.290119		-1.730224		1.700040		-102.857610		10.985103		-5.230071		7.763624		-41.137028		-3.469567		-0.013271		22.573877		1.784817		-1.072915		142.608299		-2.676579		32.477966		48.706101		69.302078		-32.829445		-2.608775		31.543492		138.823550		-1.338221		20.810122		57.045625		106.638989		-31.423773		12.262498		79.049033		
